<svg xmlns="http://www.w3.org/2000/svg" viewBox="0 0 1000 560" font-family="'Segoe UI', Arial, sans-serif">
  <defs>
    <marker id="arrow" markerWidth="9" markerHeight="9" refX="7" refY="3" orient="auto" markerUnits="strokeWidth">
      <path d="M0,0 L7,3 L0,6 Z" fill="#cc0000"/>
    </marker>
  </defs>

  <rect x="0" y="0" width="1000" height="560" fill="#ffeae6"/>
  <text x="500" y="34" text-anchor="middle" font-size="22" font-weight="700" fill="#8a0000">Fluxograma dos arquivos — Loja JEN DIAN</text>

  <!-- linhas de estrutura -->
  <g stroke="#8a0000" stroke-width="2" fill="none">
    <path d="M500,100 L500,124"/>
    <path d="M115,124 L885,124"/>
    <path d="M115,124 L115,148"/>
    <path d="M295,124 L295,148"/>
    <path d="M475,124 L475,148"/>
    <path d="M655,124 L655,148"/>
    <path d="M885,124 L885,148"/>
    <path d="M500,124 L500,262"/>
    <path d="M500,262 L500,282"/>
    <path d="M120,282 L880,282"/>
    <path d="M120,282 L120,306"/>
    <path d="M272,282 L272,306"/>
    <path d="M424,282 L424,306"/>
    <path d="M576,282 L576,306"/>
    <path d="M728,282 L728,306"/>
    <path d="M880,282 L880,306"/>
  </g>

  <!-- setas de referência -->
  <g stroke="#cc0000" stroke-width="1.8" fill="none" stroke-dasharray="5 4" marker-end="url(#arrow)">
    <path d="M190,170 L222,170"/>
    <path d="M115,192 C115,250 190,415 240,438"/>
  </g>

  <!-- raiz -->
  <rect x="385" y="56" width="230" height="44" rx="8" fill="#cc0000"/>
  <text x="500" y="83" text-anchor="middle" font-size="16" font-weight="700" fill="#ffffff" font-family="monospace">Loja_Chinesa/</text>

  <!-- nível 1 -->
  <g font-family="monospace" font-size="12" fill="#8a0000" text-anchor="middle">
    <rect x="40"  y="148" width="150" height="42" rx="6" fill="#ffffff" stroke="#cc0000" stroke-width="2"/>
    <text x="115" y="174">index.html</text>
    <rect x="220" y="148" width="150" height="42" rx="6" fill="#ffffff" stroke="#cc0000" stroke-width="2"/>
    <text x="295" y="174">main.css</text>
    <rect x="400" y="148" width="150" height="42" rx="6" fill="#ffffff" stroke="#cc0000" stroke-width="2"/>
    <text x="475" y="167">README.md</text>
    <text x="475" y="182">erros.txt</text>
    <rect x="580" y="148" width="150" height="42" rx="6" fill="#ffffff" stroke="#cc0000" stroke-width="2"/>
    <text x="655" y="174">fluxograma.svg</text>
    <rect x="810" y="148" width="150" height="42" rx="6" fill="#ffffff" stroke="#cc0000" stroke-width="2"/>
    <text x="885" y="167">3 imagens soltas</text>
    <text x="885" y="182">(seções "Sobre")</text>
  </g>

  <!-- nó imagens -->
  <rect x="360" y="222" width="280" height="40" rx="8" fill="#ffffff" stroke="#8a0000" stroke-width="2"/>
  <text x="500" y="247" text-anchor="middle" font-size="14" font-weight="700" fill="#8a0000">Pastas de imagens por categoria</text>

  <!-- categorias -->
  <g text-anchor="middle">
    <rect x="55"  y="306" width="130" height="96" rx="8" fill="#ffffff" stroke="#8a0000" stroke-width="1.5"/>
    <rect x="59"  y="310" width="122" height="22" rx="6" fill="#cc0000"/>
    <text x="120" y="325" font-size="12" font-weight="700" fill="#ffffff">Ajuste/</text>
    <text x="120" y="352" font-size="11" fill="#8a0000">3 panorâmicas</text>
    <text x="120" y="368" font-size="11" fill="#8a0000">do carrossel</text>
    <text x="120" y="384" font-size="11" fill="#8a0000">(capa 12:5)</text>

    <rect x="207" y="306" width="130" height="96" rx="8" fill="#ffffff" stroke="#8a0000" stroke-width="1.5"/>
    <rect x="211" y="310" width="122" height="22" rx="6" fill="#cc0000"/>
    <text x="272" y="325" font-size="12" font-weight="700" fill="#ffffff">Pratos/</text>
    <text x="272" y="352" font-size="11" fill="#8a0000">5 produtos</text>
    <text x="272" y="368" font-size="11" fill="#8a0000">aba Pratos</text>

    <rect x="359" y="306" width="130" height="96" rx="8" fill="#ffffff" stroke="#8a0000" stroke-width="1.5"/>
    <rect x="363" y="310" width="122" height="22" rx="6" fill="#cc0000"/>
    <text x="424" y="325" font-size="12" font-weight="700" fill="#ffffff">Vaso_chines/</text>
    <text x="424" y="352" font-size="11" fill="#8a0000">5 produtos</text>
    <text x="424" y="368" font-size="11" fill="#8a0000">aba Vasos</text>

    <rect x="511" y="306" width="130" height="96" rx="8" fill="#ffffff" stroke="#8a0000" stroke-width="1.5"/>
    <rect x="515" y="310" width="122" height="22" rx="6" fill="#cc0000"/>
    <text x="576" y="325" font-size="12" font-weight="700" fill="#ffffff">Espadas/</text>
    <text x="576" y="352" font-size="11" fill="#8a0000">5 produtos</text>
    <text x="576" y="368" font-size="11" fill="#8a0000">aba Espadas</text>

    <rect x="663" y="306" width="130" height="96" rx="8" fill="#ffffff" stroke="#8a0000" stroke-width="1.5"/>
    <rect x="667" y="310" width="122" height="22" rx="6" fill="#cc0000"/>
    <text x="728" y="325" font-size="12" font-weight="700" fill="#ffffff">Nunchacus/</text>
    <text x="728" y="352" font-size="11" fill="#8a0000">5 produtos</text>
    <text x="728" y="368" font-size="11" fill="#8a0000">aba Nunchacus</text>
    <text x="728" y="384" font-size="10" fill="#999">+1 reserva</text>

    <rect x="815" y="306" width="130" height="96" rx="8" fill="#ffffff" stroke="#8a0000" stroke-width="1.5"/>
    <rect x="819" y="310" width="122" height="22" rx="6" fill="#2c7a2c"/>
    <text x="880" y="325" font-size="12" font-weight="700" fill="#ffffff">Bule_chines/</text>
    <text x="880" y="352" font-size="11" fill="#8a0000">5 produtos</text>
    <text x="880" y="368" font-size="11" fill="#8a0000">aba Bules</text>
    <text x="880" y="384" font-size="10" fill="#2c7a2c">NOVA nesta revisão</text>
  </g>

  <!-- jsQueryMask -->
  <rect x="205" y="428" width="230" height="40" rx="8" fill="#ffffff" stroke="#8a0000" stroke-width="1.5"/>
  <text x="320" y="446" text-anchor="middle" font-size="12" font-weight="700" fill="#8a0000" font-family="monospace">jsQueryMask/</text>
  <text x="320" y="461" text-anchor="middle" font-size="10" fill="#8a0000">jquery.mask.min.js (máscara do telefone)</text>

  <!-- CDNs -->
  <rect x="530" y="428" width="330" height="40" rx="8" fill="#ffffff" stroke="#999" stroke-width="1.5" stroke-dasharray="4 3"/>
  <text x="695" y="446" text-anchor="middle" font-size="11" font-weight="700" fill="#666">Dependências externas (CDN)</text>
  <text x="695" y="461" text-anchor="middle" font-size="10" fill="#666">Bootstrap 5.3 · Bootstrap Icons · Google Fonts · jQuery 3.7</text>

  <!-- legenda -->
  <g font-size="11" fill="#8a0000">
    <line x1="40" y1="522" x2="70" y2="522" stroke="#8a0000" stroke-width="2"/>
    <text x="78" y="526">estrutura de pastas</text>
    <line x1="230" y1="522" x2="260" y2="522" stroke="#cc0000" stroke-width="1.8" stroke-dasharray="5 4"/>
    <text x="268" y="526">index.html referencia main.css e o script local</text>
    <rect x="590" y="514" width="14" height="14" rx="3" fill="#2c7a2c"/>
    <text x="612" y="526">categoria criada nesta revisão</text>
  </g>
</svg>
